<svg width="250" height="23" viewBox="0 0 250 23" fill="none" xmlns="http://www.w3.org/2000/svg">
<g clip-path="url(#clip0_44_622)">
<path d="M29 16.4C29 16 28.7 15.7 28.3 15.7H27.4C27.1 15.7 26.9 15.5 26.9 15.2V9.89995H30.7V15.3C30.7 16.5 31.6 17.3 32.7 17.3H34C34.4 17.3 34.7 17 34.7 16.6V16.4C34.7 16 34.4 15.7 34 15.7H33C32.7 15.7 32.5 15.5 32.5 15.2V9.89995H34.1C34.5 9.89995 34.8 9.59995 34.8 9.19995V8.99995C34.8 8.59995 34.5 8.29995 34.1 8.29995H32.5V5.89995C32.5 5.49995 32.2 5.19995 31.8 5.19995H31.5C31.1 5.19995 30.8 5.49995 30.8 5.89995V8.29995H27V5.89995C27 5.49995 26.7 5.19995 26.3 5.19995H26C25.6 5.19995 25.3 5.49995 25.3 5.89995V8.29995H24C23.6 8.29995 23.3 8.59995 23.3 8.99995V9.19995C23.3 9.59995 23.6 9.89995 24 9.89995H25.3V15.3C25.3 16.5 26.2 17.3 27.3 17.3H28.4C28.8 17.3 29.1 17 29.1 16.6V16.4H29Z" fill="white"/>
<path d="M22.2 17.3C22.5 17.3 22.8 17 22.8 16.7V16.1C22.8 15.9 22.6 15.7 22.4 15.7H21.9C21.7 15.7 21.5 15.6 21.5 15.3V11.4C21.5 9.3 20.1 8 17.9 8C16.4 8 15 8.7 14.5 10C14.4 10.3 14.6 10.8 14.9 10.9L15.2 11C15.7 11.1 16 11 16.2 10.6C16.5 9.9 17.1 9.7 17.9 9.7C19.1 9.7 19.8 10.4 19.8 11.5C19.4 12 18.3 12 17.2 12C15.4 12 14.1 12.9 14.1 14.7C14.1 16.5 15.6 17.5 17.5 17.5C18.5 17.5 19.6 17.2 20.1 16.5C20.4 17 20.9 17.3 21.5 17.3H22.2ZM15.9 14.6C15.9 13.9 16.4 13.4 17.2 13.4C18.2 13.4 19.4 13.4 19.9 13V14.6C19.8 15.4 19 15.8 17.9 15.8C16.8 15.9 15.9 15.5 15.9 14.6Z" fill="white"/>
<path d="M57.7 12.8C57.7 11 58.5 9.69995 60 9.69995C61 9.69995 61.8 10.4 62.2 11V14.6C61.8 15.2 61 15.9 60 15.9C58.6 15.8 57.7 14.5 57.7 12.8ZM64.5 17.3C64.8 17.3 65.1 17 65.1 16.7V16.1C65.1 15.9 64.9 15.7 64.7 15.7H64.2C64 15.7 63.8 15.6 63.8 15.3V5.89995C63.8 5.49995 63.5 5.19995 63.1 5.19995H62.8C62.4 5.19995 62.1 5.49995 62.1 5.89995V8.99995C61.5 8.49995 60.8 8.09995 59.7 8.09995C57.3 8.09995 55.9 10.1 55.8 12.8C55.9 15.5 57.3 17.5 59.7 17.5C60.9 17.5 61.7 17 62.3 16.4C62.6 17 63.2 17.3 63.8 17.3H64.5Z" fill="white"/>
<path d="M48 14.6C48 13.9 48.5 13.4 49.3 13.4C50.3 13.4 51.4 13.4 51.9 13V14.6C51.8 15.4 51 15.8 49.9 15.8C48.8 15.9 48 15.5 48 14.6ZM54.2 17.3C54.5 17.3 54.8 17 54.8 16.7V16.1C54.8 15.9 54.6 15.7 54.4 15.7H54C53.8 15.7 53.6 15.6 53.6 15.3V11.4C53.6 9.3 52.2 8 50 8C48.5 8 47.1 8.7 46.6 10C46.5 10.3 46.7 10.8 47 10.9L47.3 11C47.8 11.1 48.1 11 48.3 10.6C48.6 9.9 49.2 9.7 50 9.7C51.3 9.7 51.9 10.4 51.9 11.5C51.5 12 50.4 12 49.3 12C47.5 12 46.2 12.9 46.2 14.7C46.2 16.5 47.6 17.5 49.6 17.5C50.6 17.5 51.7 17.2 52.2 16.5C52.5 17 53 17.3 53.6 17.3H54.2Z" fill="white"/>
<path d="M38.3 14.5V11C38.7 10.4 39.5 9.7 40.5 9.7C41.9 9.7 42.7 11 42.8 12.8C42.8 14.5 42 15.9 40.5 15.9C39.5 15.8 38.7 15.2 38.3 14.5ZM44.5 12.8C44.5 10 43 8 40.7 8C39.6 8 38.8 8.4 38.3 9V8.9C38.3 8.5 38 8.2 37.6 8.2H37.3C36.9 8.2 36.6 8.5 36.6 8.9V19.6C36.6 20 36.9 20.3 37.3 20.3H37.6C38 20.3 38.3 20 38.3 19.6V16.5C38.9 17 39.6 17.4 40.7 17.4C43 17.5 44.5 15.5 44.5 12.8Z" fill="white"/>
<path d="M4.29998 17.3C4.69998 17.3 5.09998 17 5.19998 16.6L6.79998 10.8L8.39998 16.6C8.49998 17 8.89998 17.3 9.29998 17.3H9.69998C10.1 17.3 10.5 17 10.6 16.6L12.9 8.89995C13 8.59995 12.7 8.19995 12.4 8.19995H12C11.6 8.19995 11.2 8.49995 11.1 8.89995L9.49998 14.8L7.99998 8.89995C7.89998 8.49995 7.49998 8.19995 7.09998 8.19995H6.49998C6.09998 8.19995 5.69998 8.49995 5.59998 8.89995L4.09998 14.8L2.49998 8.89995C2.39998 8.49995 1.99998 8.19995 1.59998 8.19995H1.19998C0.799983 8.19995 0.599983 8.49995 0.699983 8.89995L2.89998 16.6C2.99998 17 3.39998 17.3 3.79998 17.3H4.29998Z" fill="white"/>
<path d="M226 22.4C230.4 22.4 231.1 17 234.1 12.1C234 13.8 234.1 15.4 234.4 16.4C235.7 20.6 240.3 20.9 242.3 16.7C245.2 10.7 246.1 9.30002 249 5.00002C250.9 2.20002 248.7 0.300023 246.1 1.60002C244.8 2.30002 242.6 4.00002 239.9 7.60002C240.4 4.90002 240.2 0.200023 236.3 0.500023C234.2 0.600023 231.5 3.00002 227.8 9.00002C228.1 5.60002 228.2 3.20002 226.7 2.00002C225.7 1.10002 223.3 0.800023 221.9 2.70002C220.5 4.60002 220.1 8.20002 220.3 12C220.6 20 223.5 22.4 226 22.4Z" fill="white"/>
<path d="M72.1 17.2C72.1 17.4 71.9 17.6 71.7 17.6H71.2C71 17.6 70.8 17.4 70.8 17.2V4.70005C70.8 4.50005 71 4.30005 71.2 4.30005H71.7C72 4.30005 72.1 4.50005 72.1 4.70005V9.40005C72.8 8.70005 73.7 8.30005 74.6 8.30005C77.1 8.30005 78.7 10.3 78.7 13C78.7 15.7 77.1 17.7 74.6 17.7C73.6 17.7 72.6 17.1 72.1 16.4V17.2ZM72.2 14.7C72.5 15.5 73.5 16.5 74.7 16.5C76.5 16.5 77.4 15 77.4 13C77.4 11 76.4 9.50005 74.7 9.50005C73.6 9.50005 72.7 10.3 72.2 11.1V14.7Z" fill="white"/>
<path d="M80.7 8.90005C80.7 8.70005 80.9 8.50005 81.1 8.50005H81.6C81.9 8.50005 82 8.70005 82 8.90005V9.70005C82.4 9.10005 83.5 8.30005 84.6 8.30005H85C85.3 8.30005 85.4 8.50005 85.4 8.70005V9.20005C85.4 9.40005 85.2 9.60005 84.9 9.60005H84.6C83.5 9.60005 82.5 10.2 82 11.2V17C82 17.2 81.9 17.4 81.6 17.4H81.1C80.9 17.4 80.7 17.2 80.7 17V8.90005Z" fill="white"/>
<path d="M89.3 8.30005C91.3 8.30005 92.8 9.60005 92.8 11.7V15.6C92.8 16 93.1 16.2 93.4 16.2C93.7 16.2 93.8 16.4 93.8 16.6V17.1C93.8 17.3 93.6 17.5 93.4 17.5H93.1C92.5 17.5 91.9 17.2 91.6 16.5C91 17.3 90 17.5 89.4 17.6C89 17.6 88.8 17.6 88.4 17.6C86.5 17.5 85.4 16.4 85.4 14.9C85.4 13.3 86.7 12.4 88.4 12.3C88.9 12.3 89.5 12.3 89.9 12.3C90.6 12.3 91.1 12.2 91.4 11.8V11.6C91.4 10.3 90.6 9.40005 89.1 9.40005C87.8 9.40005 87.1 10.1 86.9 11C86.8 11.3 86.6 11.5 86.3 11.5H86C85.7 11.5 85.5 11.3 85.6 11C86.1 9.50005 87.4 8.30005 89.3 8.30005ZM89.6 16.4C90.6 16.3 91.4 15.8 91.5 14.9V13.1C91 13.5 90.6 13.6 90 13.6C89.5 13.6 89 13.6 88.5 13.6C87.5 13.6 86.8 14 86.8 15C86.8 15.9 87.5 16.4 88.5 16.4C89 16.5 89.2 16.5 89.6 16.4Z" fill="white"/>
<path d="M96.6 9.50005C97.1 8.90005 98.1 8.30005 99.3 8.30005C101.4 8.30005 102.8 9.70005 102.8 11.9V17.2C102.8 17.4 102.6 17.6 102.4 17.6H101.9C101.7 17.6 101.5 17.4 101.5 17.2V11.9C101.5 10.4 100.7 9.50005 99.2 9.50005C98 9.50005 97 10.5 96.6 11.3V17.1C96.6 17.3 96.4 17.5 96.2 17.5H95.7C95.5 17.5 95.3 17.3 95.3 17.1V8.80005C95.3 8.60005 95.5 8.40005 95.7 8.40005H96.2C96.4 8.40005 96.6 8.60005 96.6 8.80005V9.50005Z" fill="white"/>
<path d="M111.4 16.5C110.9 17.2 109.9 17.8 108.8 17.8C106.3 17.8 104.8 15.8 104.8 13.1C104.8 10.4 106.3 8.40005 108.9 8.40005C109.9 8.40005 110.7 8.90005 111.4 9.50005V4.70005C111.4 4.40005 111.6 4.30005 111.8 4.30005H112.3C112.5 4.30005 112.7 4.50005 112.7 4.70005V17.1C112.7 17.3 112.5 17.5 112.3 17.5H111.8C111.5 17.5 111.4 17.3 111.4 17.1V16.5ZM111.4 11.1C111 10.3 110 9.50005 108.9 9.50005C107.2 9.50005 106.2 11 106.2 13C106.2 15 107.2 16.5 108.9 16.5C110.1 16.5 111.1 15.5 111.4 14.7V11.1Z" fill="white"/>
<path d="M120.3 20.7C120.3 20.9 120.1 21.1 119.9 21.1H119.4C119.2 21.1 119 20.9 119 20.7V8.90002C119 8.70002 119.2 8.50002 119.4 8.50002H119.8C120.1 8.50002 120.2 8.70002 120.2 8.90002V9.50002C120.9 8.80002 121.8 8.40002 122.7 8.40002C125.2 8.40002 126.8 10.4 126.8 13.1C126.8 15.8 125.2 17.8 122.7 17.8C121.7 17.8 120.7 17.2 120.2 16.6V20.7H120.3ZM120.3 14.7C120.6 15.5 121.6 16.5 122.8 16.5C124.6 16.5 125.5 15 125.5 13C125.5 11 124.5 9.50002 122.8 9.50002C121.7 9.50002 120.8 10.3 120.3 11.1V14.7Z" fill="white"/>
<path d="M131.7 8.30005C133.7 8.30005 135.2 9.60005 135.2 11.7V15.6C135.2 16 135.5 16.2 135.8 16.2C136.1 16.2 136.2 16.4 136.2 16.6V17.1C136.2 17.3 136 17.5 135.8 17.5H135.5C134.9 17.5 134.3 17.2 134 16.5C133.4 17.3 132.4 17.5 131.8 17.6C131.4 17.6 131.2 17.6 130.8 17.6C128.9 17.5 127.8 16.4 127.8 14.9C127.8 13.3 129.1 12.4 130.8 12.3C131.3 12.3 131.9 12.3 132.3 12.3C133 12.3 133.5 12.2 133.8 11.8V11.6C133.8 10.3 133 9.40005 131.6 9.40005C130.3 9.40005 129.6 10.1 129.4 11C129.3 11.3 129.1 11.5 128.8 11.5H128.4C128.1 11.5 127.9 11.3 128 11C128.5 9.50005 129.8 8.30005 131.7 8.30005ZM132 16.4C133 16.3 133.8 15.8 133.9 14.9V13.1C133.4 13.5 133 13.6 132.4 13.6C131.9 13.6 131.4 13.6 130.9 13.6C129.9 13.6 129.2 14 129.2 15C129.2 15.9 129.9 16.4 130.9 16.4C131.4 16.5 131.6 16.5 132 16.4Z" fill="white"/>
<path d="M137.7 8.90005C137.7 8.70005 137.9 8.50005 138.1 8.50005H138.6C138.9 8.50005 139 8.70005 139 8.90005V9.70005C139.4 9.10005 140.5 8.30005 141.6 8.30005H141.9C142.2 8.30005 142.3 8.50005 142.3 8.70005V9.20005C142.3 9.40005 142.1 9.60005 141.8 9.60005H141.5C140.4 9.60005 139.4 10.2 138.9 11.2V17C138.9 17.2 138.8 17.4 138.5 17.4H138C137.8 17.4 137.6 17.2 137.6 17V8.90005H137.7Z" fill="white"/>
<path d="M143.2 9.70007C142.9 9.70007 142.8 9.50007 142.8 9.30007V8.90007C142.8 8.70007 143 8.50007 143.2 8.50007H144.6V5.60007C144.6 5.30007 144.8 5.20007 145 5.20007H145.5C145.8 5.20007 145.9 5.40007 145.9 5.60007V8.50007H147.6C147.9 8.50007 148 8.70007 148 8.90007V9.30007C148 9.50007 147.8 9.70007 147.6 9.70007H145.9V15.5001C145.9 16.0001 146.2 16.3001 146.7 16.3001H147.5C147.7 16.3001 147.9 16.5001 147.9 16.7001V17.1001C147.9 17.3001 147.7 17.5001 147.5 17.5001H146.6C145.3 17.5001 144.5 16.7001 144.5 15.4001V9.60007H143.2V9.70007Z" fill="white"/>
<path d="M151.1 9.50005C151.6 8.90005 152.6 8.30005 153.8 8.30005C155.9 8.30005 157.3 9.70005 157.3 11.9V17.2C157.3 17.4 157.1 17.6 156.9 17.6H156.4C156.2 17.6 156 17.4 156 17.2V11.9C156 10.4 155.2 9.50005 153.7 9.50005C152.5 9.50005 151.5 10.5 151.1 11.3V17.1C151.1 17.3 150.9 17.5 150.7 17.5H150.2C150 17.5 149.8 17.3 149.8 17.1V8.80005C149.8 8.60005 150 8.40005 150.2 8.40005H150.7C150.9 8.40005 151.1 8.60005 151.1 8.80005V9.50005Z" fill="white"/>
<path d="M166.2 14.8H166.7C167 14.8 167.1 15 167 15.3C166.5 16.8 165 17.8 163.3 17.8C160.8 17.8 159.1 15.9 159.1 13.1C159.1 10.6 160.6 8.40002 163.2 8.40002C165.5 8.40002 167 10.2 167 12.2V12.8C167 13.1 166.8 13.2 166.6 13.2H160.5C160.5 15.1 161.5 16.5 163.4 16.5C164.5 16.5 165.3 16 165.7 15.1C165.8 14.8 166 14.8 166.2 14.8ZM165.8 12.1C165.8 10.6 164.8 9.50002 163.3 9.50002C161.7 9.50002 160.7 10.8 160.6 12.1H165.8Z" fill="white"/>
<path d="M169.1 8.90005C169.1 8.70005 169.3 8.50005 169.5 8.50005H170C170.3 8.50005 170.4 8.70005 170.4 8.90005V9.70005C170.8 9.10005 171.9 8.30005 173 8.30005H173.3C173.6 8.30005 173.7 8.50005 173.7 8.70005V9.20005C173.7 9.40005 173.5 9.60005 173.2 9.60005H172.9C171.8 9.60005 170.8 10.2 170.3 11.2V17C170.3 17.2 170.2 17.4 169.9 17.4H169.4C169.2 17.4 169 17.2 169 17V8.90005H169.1Z" fill="white"/>
<path d="M177.9 16.5001C179.4 16.5001 180.2 15.8001 180.2 14.9001C180.2 14.2001 179.7 13.8001 179 13.7001C178.2 13.6001 177.4 13.4001 176.7 13.2001C175.7 12.9001 174.7 12.2001 174.7 10.8001C174.7 9.20007 176.1 8.20007 178 8.20007C179.8 8.20007 181 9.30007 181.3 10.6001C181.3 10.8001 181.2 11.0001 181 11.0001H180.4C180.2 11.0001 180 10.9001 179.9 10.6001C179.8 10.0001 179.1 9.30007 178 9.30007C176.8 9.30007 176 9.90007 176 10.7001C176 11.3001 176.5 11.7001 177.1 11.9001C177.8 12.1001 178.6 12.2001 179.3 12.4001C180.4 12.6001 181.5 13.4001 181.5 14.8001C181.5 16.3001 180.2 17.5001 177.8 17.5001C175.7 17.5001 174.3 16.3001 174.2 14.7001C174.2 14.5001 174.3 14.3001 174.5 14.3001H175.1C175.4 14.3001 175.5 14.5001 175.5 14.7001C175.8 15.8001 176.6 16.5001 177.9 16.5001Z" fill="white"/>
<path d="M184.9 9.50005C185.4 8.90005 186.5 8.30005 187.7 8.30005C189.8 8.30005 191.2 9.70005 191.2 11.8V17.1C191.2 17.3 191 17.5 190.8 17.5H190.3C190.1 17.5 189.9 17.3 189.9 17.1V11.8C189.9 10.3 189 9.50005 187.6 9.50005C186.4 9.50005 185.4 10.4 185.1 11.3V17.1C185.1 17.3 184.9 17.5 184.7 17.5H184.2C184 17.5 183.8 17.3 183.8 17.1V4.70005C183.8 4.50005 184 4.30005 184.2 4.30005H184.7C185 4.30005 185.1 4.50005 185.1 4.70005V9.50005H184.9Z" fill="white"/>
<path d="M194.7 4.40002C195.3 4.40002 195.9 4.90002 195.9 5.60002C195.9 6.30002 195.4 6.70002 194.7 6.70002C194.1 6.70002 193.6 6.20002 193.6 5.60002C193.6 4.90002 194.1 4.40002 194.7 4.40002ZM194 8.90002C194 8.70002 194.2 8.50002 194.4 8.50002H194.9C195.2 8.50002 195.3 8.70002 195.3 8.90002V17.2C195.3 17.4 195.1 17.6 194.9 17.6H194.4C194.2 17.6 194 17.4 194 17.2V8.90002Z" fill="white"/>
<path d="M199.7 20.7C199.7 20.9 199.5 21.1 199.3 21.1H198.8C198.6 21.1 198.4 20.9 198.4 20.7V8.90002C198.4 8.70002 198.6 8.50002 198.8 8.50002H199.2C199.5 8.50002 199.6 8.70002 199.6 8.90002V9.50002C200.3 8.80002 201.2 8.40002 202.1 8.40002C204.6 8.40002 206.2 10.4 206.2 13.1C206.2 15.8 204.6 17.8 202.1 17.8C201.1 17.8 200.1 17.2 199.6 16.6V20.7H199.7ZM199.7 14.7C200 15.5 201 16.5 202.2 16.5C204 16.5 204.9 15 204.9 13C204.9 11 203.9 9.50002 202.2 9.50002C201.1 9.50002 200.2 10.3 199.7 11.1V14.7Z" fill="white"/>
<path d="M211.2 16.5001C212.7 16.5001 213.5 15.8001 213.5 14.9001C213.5 14.2001 213 13.8001 212.3 13.7001C211.5 13.6001 210.7 13.4001 210 13.2001C209 12.9001 208 12.2001 208 10.8001C208 9.20007 209.4 8.20007 211.3 8.20007C213.1 8.20007 214.3 9.30007 214.6 10.6001C214.6 10.8001 214.5 11.0001 214.3 11.0001H213.7C213.5 11.0001 213.3 10.9001 213.2 10.6001C213.1 10.0001 212.4 9.30007 211.3 9.30007C210.1 9.30007 209.3 9.90007 209.3 10.7001C209.3 11.3001 209.8 11.7001 210.4 11.9001C211.1 12.1001 211.9 12.2001 212.6 12.4001C213.7 12.6001 214.8 13.4001 214.8 14.8001C214.8 16.3001 213.5 17.5001 211.1 17.5001C209 17.5001 207.6 16.3001 207.5 14.7001C207.5 14.5001 207.6 14.3001 207.8 14.3001H208.4C208.7 14.3001 208.8 14.5001 208.8 14.7001C209 15.8001 209.8 16.5001 211.2 16.5001Z" fill="white"/>
</g>
<defs>
<clipPath id="clip0_44_622">
<rect width="250" height="23" fill="white"/>
</clipPath>
</defs>
</svg>
