<svg xmlns="http://www.w3.org/2000/svg" fill="none" viewBox="7 16 49 36"><path d="M16.4085 52C23.8066 52 24.8464 43.0472 29.8984 35.0556C29.7118 37.9126 29.8851 40.4404 30.4449 42.1783C32.6443 49.0377 40.2157 49.5643 43.6548 42.5996C48.5069 32.7779 49.8932 30.4607 54.7853 23.3907C58.0111 18.7168 54.2654 15.7018 49.9332 17.8742C47.7071 18.9933 44.0947 21.7713 39.5892 27.6827C40.3757 23.1932 40.1624 15.5834 33.6041 16.0178C30.1383 16.2416 25.6462 20.1124 19.5144 30.0263C20.0209 24.4571 20.2209 20.5074 17.7682 18.4403C16.0886 17.0184 12.1296 16.4786 9.75691 19.5199C7.37086 22.5876 6.81101 28.5648 7.05094 34.8581C7.51749 48.0371 12.2363 52 16.4085 52Z" fill="#8070DB"></path></svg>
