<svg xmlns="http://www.w3.org/2000/svg" width="61" height="20" viewBox="0 0 61 20">
    <path fill="#222" fill-rule="nonzero" d="M60.968 6.231h-4.854v8.05c0 .363-.141.672-.367.925-.226.225-.536.337-.902.364h-2.823c-.395-.028-.706-.14-.931-.364a1.358 1.358 0 0 1-.367-.925V6.23H45.87v8.47c.028 1.122.226 2.104.706 2.888.479.786 1.1 1.375 1.918 1.767.847.393 1.807.618 2.907.618h4.714v-.056c1.016 0 1.89-.225 2.624-.645a4.362 4.362 0 0 0 1.638-1.852c.394-.785.592-1.711.592-2.72V6.23zm-48.572.505c-.847-.364-1.778-.533-2.794-.505H6.469l-1.214.14c-.282.085-.423.141-.423.141V.005H.006v19.97h4.826v-8.078c.028-.337.141-.673.395-.898.254-.224.536-.364.931-.364h2.823c.338 0 .649.141.903.364.254.225.366.561.395.898v8.078h4.826V11.28c0-1.206-.254-2.188-.734-2.945a4.392 4.392 0 0 0-1.975-1.599zm16.426 7.545c-.029.364-.142.672-.367.926-.254.224-.565.336-.932.363h-2.822c-.367-.028-.677-.14-.903-.363-.254-.253-.367-.561-.395-.926V6.23h-4.826v8.47c0 1.122.225 2.104.677 2.888a4.318 4.318 0 0 0 1.92 1.767c.846.393 1.777.618 2.906.618h4.742v-.056c1.016 0 1.89-.225 2.596-.645a4.62 4.62 0 0 0 1.666-1.852c.366-.785.564-1.711.592-2.72V6.23h-4.854v8.05zm8.523 5.694h4.827V.005h-4.827v19.97z"/>
</svg>
