<svg xmlns="http://www.w3.org/2000/svg" xmlns:xlink="http://www.w3.org/1999/xlink" width="31" height="52" viewBox="0 0 31 52">
    <defs>
        <path id="a" d="M0 .186h6.249v5.052H0z"/>
        <path id="c" d="M0 51.822h30.788V0H0z"/>
    </defs>
    <g fill="none" fill-rule="evenodd">
        <g transform="translate(0 35.66)">
            <mask id="b" fill="#fff">
                <use xlink:href="#a"/>
            </mask>
            <path fill="#000" d="M5.27.409h.665V2.01h-.62c0-.286-.439-1.082-2.245-1.146-1.843-.068-2.03.796-1.407.979.804.234 2.392.186 3.378.488 1.3.399 1.664 1.731.53 2.438-1.02.637-2.804.561-4.072.143-.23-.076-.6-.27-.583-.016v.151H.149V3.295h.685c.008.1-.082.488.685.893.889.469 2.508.49 3.156.154.385-.2.44-.842-.254-.928-.745-.095-1.926-.165-2.806-.356C.99 2.923.508 2.753.222 2.4.004 2.13-.36 1.067.9.528c1.56-.669 3.722-.202 4.105.1.155.124.328.083.266-.219" mask="url(#b)"/>
        </g>
        <path fill="#000" d="M12.995 38.39c0-1.205-.883-1.887-2.052-1.887-1.17 0-2.058.682-2.055 1.888 0 1.206.917 1.92 2.055 1.888 1.138-.03 2.052-.69 2.052-1.888m-2.024-2.581c1.736 0 3.579.793 3.542 2.616-.037 1.82-1.863 2.53-3.542 2.53-1.679 0-3.669-.71-3.706-2.53-.036-1.823 2.01-2.616 3.706-2.616M29.777 36.872c-.139.13-1.863 2.077-1.863 2.077v1.044c0 .113.006.108.136.108h.713v.596h-3.269V40.1s.66.008.795 0c.139-.008.148-.038.15-.108V38.94s-1.91-1.999-1.93-2.025c-.065-.09-.244-.243-.555-.249h-.538v-.604h3.304v.604h-.34c-.071 0-.173.143-.034.275.136.13 1.12 1.252 1.12 1.252l1.122-1.262c.068-.081.048-.265-.09-.265h-.411v-.604h2.7v.604h-.628c-.204 0-.337.162-.382.205M17.157 39.82c0 .305.167.289.311.284h.651v.596h-2.865v-.575h.635c.257-.016.294-.143.302-.283v-2.816c.009-.188.009-.345-.34-.353h-.605l-.005-.618h2.423l3.272 2.889v-1.95c0-.329-.172-.329-.316-.348h-.61v-.59h2.775v.6h-.668c-.153 0-.224.146-.232.287V40.7h-.909l-3.819-3.202v2.322M1.343 43.628h.968c.391-.007.62-.099.62-.431 0-.313-.226-.44-.569-.44H1.343v.871zm-1.265 1.61v-.369H.42c.13 0 .165-.05.165-.159v-1.777c0-.108-.035-.165-.168-.165h-.32v-.38h2.537c.87 0 1.146.194 1.146.788 0 .593-.39.836-1.364.836h-1.07v.7c0 .109.031.157.164.157h.348l-.005.37H.078zM5.437 44.71c0 .108.03.156.164.156h.343v.373h-1.77v-.373h.34c.133 0 .164-.048.164-.159v-1.78c0-.108-.031-.178-.164-.178h-.34v-.372h1.77v.37H5.6c-.133 0-.164.07-.164.178v1.785M9.847 44.36c-.062.44-.591 1.022-1.551 1.022-.909 0-2.038-.367-2.058-1.54-.017-1.146 1.065-1.632 1.953-1.616.53.01 1.003.183 1.124.3.08.072.179.075.142-.14h.348v.978H9.48c-.032-.512-.655-.839-1.326-.758-.707.081-1.055.594-1.055 1.23 0 .704.608 1.184 1.226 1.182.404 0 1.041-.114 1.172-.661h.35M10.334 43.472v-1.084H13.9v1.084h-.36c.01-.766-.068-.693-.345-.723H12.5v1.97c0 .11.029.177.161.177h.343v.351h-1.772v-.35h.34c.132 0 .164-.068.164-.179V42.75h-.688c-.309.03-.348-.02-.348.723h-.366M16.294 45.366c-.714 0-1.47-.154-1.47-1.036v-1.4c0-.108-.031-.178-.164-.178h-.34v-.372h1.77v.37h-.343c-.133 0-.164.07-.164.178v1.445c0 .097-.04.663.71.663.841 0 .92-.347.92-.666v-1.44c0-.108-.03-.178-.163-.178h-.34v-.372h1.5v.37h-.342c-.083 0-.159.08-.156.296l.008 1.31c0 .848-.7 1.01-1.43 1.01M19.875 43.626h.965c.371 0 .572-.164.572-.431 0-.27-.238-.44-.535-.44h-1.002v.871m1.636.234c.297.068.51.127.526.475v.413c0 .08.014.202.159.202.152 0 .141-.167.133-.326v-.173h.317v.21c0 .513-.13.656-.597.656-.397 0-.779-.119-.779-.688v-.313c0-.21-.181-.307-.523-.307h-.87v.701c0 .109.032.157.162.157h.34v.38h-1.77v-.383h.34c.133 0 .165-.049.165-.157V42.93c0-.108-.037-.191-.168-.191h-.32v-.354h2.48c.87 0 1.158.265 1.153.804 0 .461-.405.607-.75.669M24.305 44.877l1.594.006c.308-.028.362-.168.362-.72h.342v1.084h-3.567v-.37h.34c.133 0 .165-.05.165-.159v-1.78c0-.11-.032-.18-.165-.18h-.34v-.373h3.567v1.085h-.342c0-.554-.054-.705-.362-.734h-1.594v.857h.742c.096 0 .158-.035.158-.183v-.297h.331v1.34h-.328v-.296c0-.149-.062-.183-.159-.183h-.744v.903M30.102 42.42h.352v.993h-.326c0-.175-.235-.718-1.183-.742-.971-.027-1.099.48-.73.64.407.175 1.253.112 1.769.293.68.243.872 1.047.277 1.475-.535.386-1.469.34-2.134.087-.122-.046-.315-.162-.306-.01v.094h-.402v-1.063h.36c0 .062-.043.297.36.54.593.364 1.171.402 1.655.113.22-.135.314-.515-.136-.582-.39-.055-1.008-.098-1.472-.214-.325-.08-.577-.186-.73-.396-.125-.178-.335-.793.356-1.133.818-.405 1.727-.165 2.152.062.099.051.173.049.138-.156"/>
        <mask id="d" fill="#fff">
            <use xlink:href="#c"/>
        </mask>
        <path fill="#000" d="M.1 47.472h30.662v-.575H.1zM6.657 51.741v-.288h.3c.13 0 .221-.038.221-.17v-1.667c0-.116-.062-.167-.25-.167h-.271v-.286h1.718v.286h-.263c-.207 0-.277.04-.277.175v1.834h.767c.481 0 .6-.224.642-.825h.346v1.108H6.657M16.65 49.451h-.107c-.221 0-.32.052-.405.24l-.92 2.05h-.643l-.923-2.084c-.073-.178-.172-.206-.35-.206h-.131v-.288h1.662v.288h-.292c-.142 0-.2.028-.2.09s.022.108.045.159l.583 1.415h.008l.634-1.415c.028-.068.048-.106.048-.152 0-.07-.088-.097-.226-.097h-.286v-.288h1.503v.288M25.191 49.085c-1.02 0-1.696.596-1.696 1.37 0 .774.677 1.365 1.696 1.365 1.02 0 1.695-.591 1.695-1.365s-.676-1.37-1.695-1.37m0 .305c.756 0 .96.51.96 1.065 0 .555-.204 1.062-.946 1.062-.756 0-.97-.507-.97-1.062 0-.556.214-1.065.956-1.065M28.039 49.654h-.008v1.645c0 .092.068.154.19.154h.353v.288H27.02v-.288h.328c.145 0 .193-.062.193-.154v-1.707c0-.103-.048-.14-.193-.14h-.328v-.289h1.384l1.367 1.856h.009v-1.387c0-.116-.074-.18-.244-.18h-.286v-.289h1.532v.289h-.277c-.17 0-.235.056-.235.134v2.155h-.697l-1.534-2.087M4.361 51.407l1.334.008c.257-.028.303-.151.303-.65h.285v.979H3.3v-.335h.287c.11 0 .135-.043.135-.142v-1.605c0-.097-.025-.162-.135-.162h-.287v-.338h2.984v.977h-.285c0-.496-.046-.634-.303-.658H4.36v.774h.62c.082 0 .133-.03.133-.165v-.267h.278v1.208h-.275v-.267c0-.135-.054-.165-.133-.165h-.623v.815M10.968 51.401l1.334.006c.254-.025.303-.151.303-.648h.286v.977H9.907v-.334h.286c.11 0 .136-.046.136-.143v-1.605c0-.1-.026-.162-.136-.162h-.286v-.337h2.984v.976h-.286c0-.496-.049-.634-.303-.66h-1.334v.77h.62c.08 0 .134-.029.134-.164v-.267h.277v1.209h-.277v-.268c0-.134-.052-.166-.134-.166h-.62v.814M17.96 51.259c0 .097.026.142.137.142h.286v.332h-1.48V51.4h.285c.11 0 .136-.043.136-.14V49.65c0-.097-.025-.162-.136-.162h-.286v-.334h1.48v.334h-.285c-.11 0-.136.062-.136.16v1.61M22.884 51.261c0 .097.025.143.136.143h.286v.332h-1.481v-.335h.286c.11 0 .136-.043.136-.14v-1.607c0-.097-.026-.162-.136-.162h-.286v-.335h1.48v.335h-.285c-.11 0-.136.062-.136.16v1.61M21.092 49.168h.291v.893h-.271c0-.156-.196-.645-.988-.666-.813-.024-.92.431-.612.574.34.16 1.048.103 1.481.267.569.219.73.945.232 1.33-.448.348-1.229.307-1.786.078-.1-.043-.263-.145-.255-.008v.081h-.337v-.954h.3c0 .054-.034.267.3.485.498.327.982.362 1.387.103.184-.122.264-.467-.113-.526-.326-.05-.844-.086-1.232-.192-.274-.073-.484-.167-.608-.359-.108-.161-.28-.714.295-1.022.684-.364 1.446-.148 1.8.057.082.046.144.046.116-.14M.109 50.137v-.98h2.98v.98h-.3c.006-.69-.058-.626-.29-.65l-.581-.001v1.778c0 .097.025.161.136.161h.286v.316H.86v-.316h.283c.11 0 .138-.064.138-.161v-1.778H.704c-.258.025-.292-.018-.292.65H.109" mask="url(#d)"/>
        <path fill="#231F20" d="M6.799 19.456c-.742 1.398-.522 1.5 0 2.034.054.07.076.21.061.47v8.654s-1.819.86-1.852.86l.006-20.3 1.846-.776.006 8.346c.014.443-.037.659-.067.712M2.585 12.193l1.718-.718v20.326l-1.725.752zM.011 13.301l1.782-.733v20.28l-1.782.811zM30.19 9.527c.022 2.418.538 10.578.518 10.722l-1.099.48s.313-5.332.42-10.634c.073-2.21-.581-9.614-.581-9.614l1.1-.481s-.374 8.598-.359 9.527M27.73 10.592c-.093 1.246.46 10.767.46 10.767-.35.137-1.065.461-1.065.461s.319-10.052.315-10.8c-.11-2.386-.706-9.34-.706-9.34l1.422-.631s-.352 8.584-.426 9.543M25.05 13.303c.05 1.85.612 9.135.612 9.135l-1.193.537s.245-7.682.257-10.27c-.054-2.114-.714-9.83-.714-9.83.465-.268.963-.435 1.455-.627 0 0-.484 8.95-.418 11.055M22.369 14.296c-.037.997.672 9.277.672 9.277s-1.354.588-1.386.631c0-.299.33-8.662.33-10.229 0-1.391-.687-9.93-.687-9.93l1.489-.657s-.38 8.807-.418 10.908M19.62 15.576c.018 1.818.674 9.228.674 9.228l-1.455.63h-.027s.405-9 .35-10.395c.132-1.384-.791-9.681-.791-9.681l1.7-.772c0 .137-.547 7.893-.452 10.99M16.9 15.368c-.028 3.843.747 10.572.747 10.572l-1.95.851s.829-8.4.716-10.467c.035-2.42-.862-9.503-.867-9.734.618-.319 1.265-.57 1.904-.836 0 0-.578 7.758-.55 9.614M14.41 11.695c-.5 4.15-.577 8.62.27 12.678l.313 2.733-2.068.898-.035.031s-.006-3.413 0-3.531c.496-3.572.963-8.404-.054-12.558V7.728l2.1-.9-.525 4.867M12.218 12.016c-.864 4.847-1.11 8.534 0 12.466v3.846l-2.023.868.014-6.383c.79-3.051.708-4.78.088-7.907v-6.06l1.93-.804-.009 3.974M9.49 15.223c-.577 2.708-1.016 5.123-.056 7.615l-.003 6.733-1.946.842-.004-8.618c-.014-.265.031-.519.059-.534.719-.903.803-1.346.146-2.08-.11-.133-.21-.17-.201-.334v-8.76l1.976-.859h.034l-.006 5.995" mask="url(#d)"/>
    </g>
</svg>
