<svg xmlns="http://www.w3.org/2000/svg" xmlns:xlink="http://www.w3.org/1999/xlink" width="81" height="20" viewBox="0 0 81 20">
    <defs>
        <path id="a" d="M.001.017h19.602v19.911H.001z"/>
        <path id="c" d="M19.63.017v19.911H.03V.018z"/>
        <path id="e" d="M.008.017h17.877v9.91H.008z"/>
    </defs>
    <g fill="none" fill-rule="evenodd">
        <g transform="translate(19.881)">
            <mask id="b" fill="#fff">
                <use xlink:href="#a"/>
            </mask>
            <path fill="#222" fill-rule="nonzero" d="M19.15.017h-7.94l-.454.454v9.455H8.758V.471L8.304.017H.454C.279.195.179.294.002.47v9.546l5.377 5.434v4.023l.454.454h7.85l.453-.454v-4.07l5.468-5.478V.471l-.454-.454" mask="url(#b)"/>
        </g>
        <g transform="translate(61.328)">
            <mask id="d" fill="#fff">
                <use xlink:href="#c"/>
            </mask>
            <path fill="#222" fill-rule="nonzero" d="M19.177.017h-7.94l-.454.455v9.455H8.785V.472L8.332.017H.482L.03.472v9.545l5.377 5.434v4.023l.453.454h7.85l.454-.454v-4.069l5.468-5.478V.472l-.454-.455" mask="url(#d)"/>
        </g>
        <g>
            <mask id="f" fill="#fff">
                <use xlink:href="#e"/>
            </mask>
            <path fill="#222" fill-rule="nonzero" d="M17.431.017H3.978L.008 3.994v5.48l.454.452h8.484V7.972h8.485l.454-.455V.471L17.43.017" mask="url(#f)"/>
        </g>
        <path fill="#000" fill-rule="nonzero" d="M.008 12.336v7.138l.454.454h13.453l3.97-3.977v-5.57l-.454-.454H8.946v1.954H.462l-.454.455z"/>
        <path fill="#222" fill-rule="nonzero" d="M45.452.017l-3.97 3.978v15.479l.454.454h7.85l.453-.454v-2.477h8.666l.454-.455v-6.16l-.454-.455H50.24V7.972h8.666l.454-.454V.472l-.454-.455H45.452z"/>
    </g>
</svg>
